# xmcd CD database file
#
# Track frame offsets:
#	150
#	101353
#	176167
#
# Disc length: 2954 seconds
#
# Revision: 0
# Processed by: cddbd v1.5.2PL0 Copyright (c) Steve Scherf et al.
# Submitted via: CDex 1.51
#
DISCID=1d0b8803
DTITLE=George Russell -  New York Band Live in American Time Spiral
DYEAR=1983
DGENRE=Jazz
TTITLE0=George Russell - Time Spiral
TTITLE1=George Russell - Ezz-Thetic
TTITLE2=George Russell - D.C. Divertimento
EXTD=YEAR: 1983
EXTT0=
EXTT1=
EXTT2=
PLAYORDER=
